<svg
  width="512"
  height="512"
  viewBox="0 0 512 512"
  fill="currentColor"
  xmlns="http://www.w3.org/2000/svg"
>
  {/* ピン全体 (変更なし) */}
  <path d="M256 48c-91.6 0-166 74.4-166 166 0 111.2 166 250 166 250s166-138.8 166-250c0-91.6-74.4-166-166-166zM256 288c-51.9 0-94-42.1-94-94s42.1-94 94-94 94 42.1 94 94-42.1 94-94 94z"/>

  {/* ハート (位置は上へ15、そして下部を尖らせるように修正) */}
  <path
    transform="translate(0, -10)"
    d="M256 168
       c-16.7-19.9-49.2-20.6-65.3 2.2
       c-15.7 22.2 1.2 47.4 24.7 67.7
       c9.8 8.5 25.1 20.5 40.6 33.1
       c15.5-12.6 30.8-24.6 40.6-33.1
       c23.5-20.3 40.4-45.5 24.7-67.7
       c-16.1-22.8-48.6-22.1-65.3-2.2
       L256 220 Z" 
  />
</svg>